<svg id="Capa_1" enable-background="new 0 0 512 512" height="512" viewBox="0 0 512 512" width="512" xmlns="http://www.w3.org/2000/svg"><g><path d="m0 445.398v-246.844c0-27.168 22.024-49.191 49.191-49.191h413.617c27.168 0 49.191 22.024 49.191 49.191v246.844c0 27.168-22.024 49.191-49.191 49.191h-413.617c-27.167 0-49.191-22.024-49.191-49.191z" fill="#a0bce7"/><path d="m49.192 149.363c-27.168 0-49.192 22.023-49.192 49.191v246.844c0 27.168 22.024 49.191 49.192 49.191h162.018c-86.783-65.383-91.166-276.125-78.745-345.227h-83.273z" fill="#8ea3e2"/><path d="m459.373 458.533h-406.746c-9.151 0-16.57-7.419-16.57-16.57v-164.255c0-9.152 7.419-16.57 16.57-16.57h406.747c9.151 0 16.57 7.419 16.57 16.57v164.255c0 9.151-7.419 16.57-16.571 16.57z" fill="#616a84"/><path d="m128.382 261.137h-75.755c-9.151 0-16.57 7.419-16.57 16.57v164.255c0 9.152 7.419 16.57 16.57 16.57h126.266c-32.851-51.384-46.813-129.762-50.511-197.395z" fill="#4b5165"/><g><g fill="#b0da87"><ellipse cx="175.965" cy="378.992" rx="7.812" ry="7.812" transform="matrix(.23 -.973 .973 .23 -233.316 463.175)"/><ellipse cx="175.965" cy="347.693" rx="7.812" ry="7.812" transform="matrix(.083 -.997 .997 .083 -185.056 494.38)"/></g><g fill="#b0da87"><path d="m72.49 384.113c-.286 0-.574-.016-.865-.049-4.115-.473-7.068-4.192-6.596-8.307 6.032-52.521 42.676-80.33 44.233-81.488 3.325-2.472 8.022-1.782 10.494 1.542 2.468 3.319 1.784 8.008-1.527 10.483-.33.247-33.031 25.309-38.298 71.174-.439 3.824-3.682 6.645-7.441 6.645z"/><path d="m105.653 422.519c-22.628 0-41.038-18.409-41.038-41.038 0-22.628 18.409-41.038 41.038-41.038s41.038 18.409 41.038 41.038c-.001 22.629-18.41 41.038-41.038 41.038zm0-67.075c-14.357 0-26.038 11.68-26.038 26.038 0 14.357 11.68 26.038 26.038 26.038 14.357 0 26.038-11.68 26.038-26.038-.001-14.358-11.681-26.038-26.038-26.038z"/></g><g><path d="m246.278 428.944c-22.628 0-41.038-18.409-41.038-41.038v-53.635c0-22.628 18.409-41.038 41.038-41.038s41.038 18.409 41.038 41.038v53.635c0 22.629-18.409 41.038-41.038 41.038zm0-120.71c-14.357 0-26.038 11.68-26.038 26.038v53.635c0 14.358 11.681 26.038 26.038 26.038s26.038-11.68 26.038-26.038v-53.635c0-14.357-11.681-26.038-26.038-26.038z" fill="#b0da87"/></g><g><path d="m350.375 428.944c-22.628 0-41.038-18.409-41.038-41.038v-53.635c0-22.628 18.409-41.038 41.038-41.038 22.628 0 41.038 18.409 41.038 41.038v53.635c-.001 22.629-18.41 41.038-41.038 41.038zm0-120.71c-14.357 0-26.038 11.68-26.038 26.038v53.635c0 14.358 11.681 26.038 26.038 26.038s26.038-11.68 26.038-26.038v-53.635c-.001-14.357-11.682-26.038-26.038-26.038z" fill="#b0da87"/></g></g><g><g><ellipse cx="169.623" cy="226.677" fill="#fff" rx="31.872" ry="25.381"/><ellipse cx="342.377" cy="226.677" fill="#fff" rx="31.872" ry="25.381"/><ellipse cx="256" cy="207.176" fill="#616a84" rx="16.918" ry="18.931"/></g><g fill="#616a84"><path d="m174.951 203.549c-4.142 0-7.5-3.358-7.5-7.5v-12.362c0-4.142 3.358-7.5 7.5-7.5s7.5 3.358 7.5 7.5v12.362c0 4.142-3.358 7.5-7.5 7.5z"/><path d="m337.049 203.549c-4.142 0-7.5-3.358-7.5-7.5v-12.362c0-4.142 3.358-7.5 7.5-7.5s7.5 3.358 7.5 7.5v12.362c0 4.142-3.358 7.5-7.5 7.5z"/></g></g><g><path d="m256 66.171c-4.142 0-7.5-3.358-7.5-7.5v-33.76c0-4.142 3.358-7.5 7.5-7.5s7.5 3.358 7.5 7.5v33.76c0 4.142-3.358 7.5-7.5 7.5z" fill="#e68a97"/><g fill="#b0da87"><path d="m171.858 81.823c-1.919 0-3.839-.732-5.303-2.197l-26.399-26.399c-2.929-2.929-2.929-7.678 0-10.606 2.929-2.929 7.678-2.929 10.606 0l26.399 26.399c2.929 2.929 2.929 7.678 0 10.606-1.464 1.464-3.383 2.197-5.303 2.197z"/><path d="m340.142 81.823c-1.919 0-3.839-.732-5.303-2.197-2.929-2.929-2.929-7.678 0-10.606l26.399-26.399c2.929-2.929 7.678-2.929 10.606 0 2.929 2.929 2.929 7.678 0 10.606l-26.399 26.399c-1.465 1.464-3.385 2.197-5.303 2.197z"/></g></g><path d="m342.447 116.492h-30.844c-7.02 0-12.71 5.691-12.71 12.71v20.161h56.264v-20.161c0-7.019-5.69-12.71-12.71-12.71z" fill="#f3be77"/><path d="m439.434 116.492h-30.843c-7.02 0-12.71 5.691-12.71 12.71v20.161h56.264v-20.161c-.001-7.019-5.691-12.71-12.711-12.71z" fill="#f3be77"/><path d="m72.566 116.492h116.218c7.02 0 12.71 5.691 12.71 12.71v20.161h-141.638v-20.161c0-7.019 5.69-12.71 12.71-12.71z" fill="#e68a97"/><g fill="#b0da87"><path d="m441.339 341.772h-22.823c-4.142 0-7.5-3.358-7.5-7.5s3.358-7.5 7.5-7.5h22.823c4.142 0 7.5 3.358 7.5 7.5s-3.358 7.5-7.5 7.5z"/><path d="m441.339 386.492h-22.823c-4.142 0-7.5-3.358-7.5-7.5s3.358-7.5 7.5-7.5h22.823c4.142 0 7.5 3.358 7.5 7.5s-3.358 7.5-7.5 7.5z"/></g></g></svg>